<svg xmlns="http://www.w3.org/2000/svg" id="Layer_1" data-name="Layer 1" width="274mm" height="57mm" viewBox="0 0 776.6929 161.5748">
    <defs>
        <style>.cls-1{fill:white;}.cls-2{fill:white;}</style>
    </defs>
    <polygon class="cls-1" points="346.735 46.249 322.847 7.819 301.294 7.819 301.294 98.701 320.899 98.701 320.899 39.758 346.218 78.188 346.735 78.188 372.313 39.368 372.313 98.701 392.176 98.701 392.176 7.819 370.626 7.819 346.735 46.249"/>
    <path class="cls-1" d="M574.1808,38.07V37.811c0-8.57-2.7275-15.71-7.79-20.7739-5.9727-5.9726-14.9316-9.2178-26.486-9.2178H498.359V98.7012h19.9939V69.6181h15.71l19.4744,29.0831h23.3693l-22.2-32.4586C566.2607,61.9587,574.1808,52.7408,574.1808,38.07Zm-20.2545,1.0388c0,7.66-5.5817,12.8539-15.3189,12.8539H518.3529V25.8657h19.8636c9.7371,0,15.71,4.4144,15.71,12.9824Z"/>
    <polygon class="cls-1" points="617.186 61.828 660.03 61.828 660.03 44.042 617.186 44.042 617.186 25.607 665.872 25.607 665.872 7.819 597.321 7.819 597.321 98.701 666.522 98.701 666.522 80.914 617.186 80.914 617.186 61.828"/>
    <polygon class="cls-1" points="750.454 7.819 728.382 44.301 706.701 7.819 683.332 7.819 718.256 62.867 718.256 98.701 738.249 98.701 738.249 62.478 773.175 7.819 750.454 7.819"/>
    <path class="cls-1" d="M448.6783,82.2092c-12.02,0-19.2391-8.9178-19.2391-19.9959v-.2711c0-10.6731,7-19.7247,18.4274-19.7247,7.2962,0,11.89,3.1076,16.4833,7.9724L476.914,36.6785c-6.7539-7.5656-15.2667-12.1591-28.9118-12.1591-22.1562,0-37.9633,17.0238-37.9633,37.6939v.2694c0,20.672,15.941,37.4246,37.6939,37.4246,14.455,0,22.5611-5.539,29.588-13.24L465.2954,74.508C460.2969,79.2354,455.5678,82.2092,448.6783,82.2092Z"/>
    <path class="cls-1" d="M245.47,25.1466c-21.1392,0-37.08,16.1153-37.08,37.4867v.2584c0,21.6475,16.3375,37.3583,38.8471,37.3583,12.6455,0,23.0325-4.5279,30.8717-13.4561l1.3534-1.5411L267.545,75.2185l-.4847.4491c-6.1786,5.724-11.7369,8.0587-19.1849,8.0587-9.4952,0-16.2761-5.01-18.5526-13.5367h52.1086l.1938-2.2132c.1261-1.435.2453-2.7915.2453-4.1819C281.8705,44.5571,270.6153,25.1466,245.47,25.1466Zm-16.34,30.7056c2.0178-8.5306,8.186-13.9167,16.2037-13.9167,9.661,0,14.43,6.8326,15.873,13.9167Z"/>
    <path class="cls-2" d="M142.1747,87.2093l-6.3468-6.3469,6.4871-6.4871a13.7994,13.7994,0,1,0-3.7132-3.7128l-6.4869,6.4869L119.2923,64.3269a13.7868,13.7868,0,0,0,.0678-15.5393l5.184-5.1839a13.816,13.816,0,1,0-3.709-3.7171l-5.188,5.188a13.7874,13.7874,0,0,0-15.5394.0676L87.43,32.4641l6.4868-6.4868A13.8013,13.8013,0,0,0,111.3993,4.7808,13.7981,13.7981,0,0,0,90.2074,22.26l-6.4908,6.4909L77.1551,22.19A13.8008,13.8008,0,1,0,55.96,24.2242h-.0006a13.8006,13.8006,0,0,0,17.4832,1.6785l6.5614,6.5614-12.68,12.68A13.8272,13.8272,0,0,0,51.78,45.069l-5.1824-5.1824a13.7716,13.7716,0,1,0-3.709,3.7171l5.1744,5.1743a13.7862,13.7862,0,0,0,.076,15.5508L35.3176,77.15l-6.5614-6.5614A13.801,13.801,0,0,0,7.5606,53.1054,13.7985,13.7985,0,0,0,25.0391,74.2976l6.5655,6.5654L25.184,87.2836a13.7921,13.7921,0,1,0,2.0386,21.1916h.0007a13.82,13.82,0,0,0,1.6736-17.4784l6.4207-6.4207L48.0114,97.27a13.8309,13.8309,0,0,0,0,15.44l-5.1233,5.1233a13.8155,13.8155,0,1,0,3.709,3.7171l5.1273-5.1273a13.7984,13.7984,0,0,0,15.44,0l12.8383,12.8382-6.42,6.4205a13.8209,13.8209,0,0,0-17.4786,1.6739v.0007a13.8009,13.8009,0,1,0,21.1917,2.0384l6.42-6.42,6.3469,6.3469a13.801,13.801,0,1,0,3.713-3.7131l-6.3468-6.3469,12.8364-12.8364a13.803,13.803,0,0,0,15.4338-.01l5.1359,5.1359a13.7976,13.7976,0,1,0,21.1916-2.0387h.0006a13.8008,13.8008,0,0,0-17.4832-1.6784l-5.1361-5.1361a13.8307,13.8307,0,0,0,.0106-15.4255l12.6963-12.6963,6.3469,6.347a13.8009,13.8009,0,1,0,3.7129-3.7131Zm1.8187-30.3165a8.5492,8.5492,0,1,1-2.504,6.0458A8.5242,8.5242,0,0,1,143.9934,56.8928ZM126.2225,26.1205a8.55,8.55,0,1,1,0,12.0917A8.4946,8.4946,0,0,1,126.2225,26.1205ZM95.5958,8.4938a8.55,8.55,0,1,1-.0007,12.0917A8.4908,8.4908,0,0,1,95.5958,8.4938ZM71.7636,20.5112a8.5492,8.5492,0,0,1-12.09,0h-.0006a8.55,8.55,0,1,1,12.091,0ZM41.21,38.2122a8.55,8.55,0,1,1,0-12.0917A8.495,8.495,0,0,1,41.21,38.2122ZM23.3647,68.91a8.5457,8.5457,0,1,1,0-12.0911V56.82a8.5492,8.5492,0,0,1,0,12.09Zm.1449,35.8521a8.546,8.546,0,1,1-.0007-12.0911A8.56,8.56,0,0,1,23.51,104.7622Zm17.7,30.5537a8.55,8.55,0,1,1-12.0911-12.0911H29.12A8.5495,8.5495,0,0,1,41.21,135.3159Zm30.6979,17.8452a8.55,8.55,0,1,1-12.0911-12.0917v.0006a8.55,8.55,0,1,1,12.0911,12.0911ZM95.45,140.9957a8.55,8.55,0,1,1,0,12.0917A8.5238,8.5238,0,0,1,95.45,140.9957Zm30.7722-17.7709a8.5493,8.5493,0,0,1,12.09,0h.0006a8.55,8.55,0,1,1-12.0911,0ZM113.9686,50.4661a8.5492,8.5492,0,1,1-6.0458-2.504A8.5593,8.5593,0,0,1,113.9686,50.4661Zm-30.252-14.289L96.4228,48.8834A13.8348,13.8348,0,0,0,96.49,64.2318l-5.0534,5.0534a13.8308,13.8308,0,0,0-15.44,0l-5.0585-5.0585a13.8091,13.8091,0,0,0,.0732-15.3437ZM77.67,86.7643a8.55,8.55,0,1,1,12.0917,0A8.56,8.56,0,0,1,77.67,86.7643ZM65.546,50.4565a8.56,8.56,0,1,1-6.0459-2.5A8.4948,8.4948,0,0,1,65.546,50.4565ZM51.8812,68.0125a13.8094,13.8094,0,0,0,15.343-.073l5.0588,5.0588a13.8306,13.8306,0,0,0,0,15.44l-5.1179,5.1179a13.8313,13.8313,0,0,0-15.4408,0L39.0307,80.863Zm1.5179,43.0231a8.55,8.55,0,1,1,12.0911,0A8.5594,8.5594,0,0,1,53.3991,111.0356Zm30.3168,14.5127L70.8817,112.7141a13.8012,13.8012,0,0,0,0-15.4483l5.114-5.114a13.7994,13.7994,0,0,0,15.4405,0l5.1015,5.1015a13.7978,13.7978,0,0,0,.0106,15.4623ZM101.93,111.0228a8.5495,8.5495,0,1,1,12.09-12.0911h.0007A8.55,8.55,0,0,1,101.93,111.0228Zm13.7841-17.4722a13.7987,13.7987,0,0,0-15.4626-.01L95.15,88.4388a13.8313,13.8313,0,0,0,0-15.4406l5.0492-5.0492a13.81,13.81,0,0,0,15.3553.0657l12.8477,12.8477Zm40.2273,11.1379a8.546,8.546,0,1,1,0-12.0918A8.56,8.56,0,0,1,155.9409,104.6885Z"/>
    <path class="cls-1" d="M208.359,154.301V129.1161h16.0946v3.4308H212.1793v7.3576h10.47V143.3h-10.47V150.87h12.2743v3.4313Z"/>
    <path class="cls-1" d="M251.9347,154.301V137.464l-5.8007,12.2738h-2.83l-5.9425-12.2738v16.837h-3.82V129.1161h3.82l7.3572,15.67,7.216-15.67h3.82V154.301Z"/>
    <path class="cls-1" d="M275.7013,144.3967h-5.73v9.9043h-3.82V129.1161h9.55c4.9167,0,8.0651,3.2541,8.0651,7.6405S280.618,144.3967,275.7013,144.3967Zm-.2122-11.85h-5.5179V140.93h5.5179c2.6532,0,4.457-1.5209,4.457-4.1737S278.1423,132.5469,275.4891,132.5469Z"/>
    <path class="cls-1" d="M307.0383,151.8249a9.5251,9.5251,0,0,1-13.2646,0c-2.4761-2.4761-2.4405-5.2705-2.4405-10.1166s-.0356-7.64,2.4405-10.1161a9.5251,9.5251,0,0,1,13.2646,0c2.4761,2.476,2.4055,5.27,2.4055,10.1161S309.5144,149.3488,307.0383,151.8249Zm-2.9-17.9338a5.2948,5.2948,0,0,0-7.4993,0c-1.238,1.3441-1.4854,2.7594-1.4854,7.8172s.2474,6.4731,1.4854,7.8173a5.295,5.295,0,0,0,7.4993,0c1.2376-1.3442,1.4854-2.759,1.4854-7.8173S305.3757,135.2352,304.1381,133.8911Z"/>
    <path class="cls-1" d="M338.4458,154.301h-3.3246l-5.1294-17.65-5.0934,17.65h-3.3251l-6.5792-25.1849h4.0325l4.386,18.0044,5.0583-18.0044h3.0773l5.0583,18.0044,4.3865-18.0044h4.032Z"/>
    <path class="cls-1" d="M352.5554,154.301V129.1161H368.65v3.4308H356.3757v7.3576h10.47V143.3h-10.47V150.87H368.65v3.4313Z"/>
    <path class="cls-1" d="M391.64,154.301l-5.3061-10.6117h-4.775V154.301h-3.82V129.1161h9.7627c4.7755,0,7.8173,3.0773,7.8173,7.3572a6.6137,6.6137,0,0,1-5.0228,6.6853l5.8012,11.1424Zm-4.4215-21.7541h-5.66v7.8883h5.66c2.5466,0,4.28-1.45,4.28-3.9264S389.7646,132.5469,387.218,132.5469Z"/>
    <path class="cls-1" d="M419.0127,156.9187v-30.42H421.56v30.42Z"/>
    <path class="cls-1" d="M453.6739,154.5133a9.1267,9.1267,0,0,1-6.6147-2.6884c-2.4761-2.4761-2.4406-5.2705-2.4406-10.1166s-.0355-7.64,2.4406-10.1161a9.1267,9.1267,0,0,1,6.6147-2.6884c4.6338,0,8.1,2.7234,8.9847,7.7467h-3.8913c-.6013-2.5472-2.2989-4.3159-5.0934-4.3159a5.0316,5.0316,0,0,0-3.7141,1.5214c-1.238,1.3442-1.5209,2.7945-1.5209,7.8523s.2829,6.5086,1.5209,7.8528a5.0312,5.0312,0,0,0,3.7141,1.5209c2.7945,0,4.5277-1.7687,5.1289-4.3154h3.8558C461.81,151.7894,458.2371,154.5133,453.6739,154.5133Z"/>
    <path class="cls-1" d="M485.506,154.301,480.2,143.6893h-4.775V154.301h-3.82V129.1161h9.7626c4.7755,0,7.8173,3.0773,7.8173,7.3572a6.6137,6.6137,0,0,1-5.0228,6.6853l5.8012,11.1424Zm-4.4215-21.7541h-5.66v7.8883h5.66c2.5467,0,4.28-1.45,4.28-3.9264S483.6312,132.5469,481.0845,132.5469Z"/>
    <path class="cls-1" d="M498.6262,154.301V129.1161h16.0946v3.4308H502.4465v7.3576h10.47V143.3h-10.47V150.87h12.2743v3.4313Z"/>
    <path class="cls-1" d="M538.276,154.301l-1.7332-5.0583h-9.9394L524.87,154.301h-4.068l9.2325-25.1849h3.0773l9.232,25.1849Zm-6.6143-19.49-3.9264,11.1779h7.7467Z"/>
    <path class="cls-1" d="M556.17,132.5469V154.301h-3.82V132.5469h-6.9327v-3.4308H563.103v3.4308Z"/>
    <path class="cls-1" d="M571.3066,154.301V129.1161h16.0945v3.4308H575.1269v7.3576h10.47V143.3h-10.47V150.87h12.2742v3.4313Z"/>
    <path class="cls-1" d="M610.7423,156.9187v-30.42H613.29v30.42Z"/>
    <path class="cls-1" d="M637.2679,154.301V129.1161h16.0945v3.4308H641.0881v7.3576h10.47V143.3h-10.47V150.87h12.2743v3.4313Z"/>
    <path class="cls-1" d="M670.5858,154.301h-2.9712l-8.2773-25.1849h3.9619L669.1,147.4389l5.8012-18.3228h4.0325Z"/>
    <path class="cls-1" d="M699.9773,151.8249a9.525,9.525,0,0,1-13.2645,0c-2.4761-2.4761-2.4406-5.2705-2.4406-10.1166s-.0355-7.64,2.4406-10.1161a9.525,9.525,0,0,1,13.2645,0c2.4761,2.476,2.4055,5.27,2.4055,10.1161S702.4534,149.3488,699.9773,151.8249Zm-2.9-17.9338a5.2948,5.2948,0,0,0-7.4993,0c-1.238,1.3441-1.4853,2.7594-1.4853,7.8172s.2473,6.4731,1.4853,7.8173a5.295,5.295,0,0,0,7.4993,0c1.2376-1.3442,1.4854-2.759,1.4854-7.8173S698.3147,135.2352,697.0771,133.8911Z"/>
    <path class="cls-1" d="M711.1881,154.301V129.1161h3.82V150.87H727.141v3.4313Z"/>
    <path class="cls-1" d="M741.0019,154.301h-2.9712l-8.2773-25.1849h3.9619l5.8008,18.3228,5.8012-18.3228H749.35Z"/>
    <path class="cls-1" d="M756.6688,154.301V129.1161h16.0946v3.4308H760.4891v7.3576h10.47V143.3h-10.47V150.87h12.2743v3.4313Z"/>
</svg>