<svg xmlns="http://www.w3.org/2000/svg" width="91.637" height="40" viewBox="0 0 91.637 40">
    <g transform="translate(-187.401 -21.801)">
        <path d="M208.077,40.518c.077.08.089.1.03.059s-.068-.059-.03-.059a2.2,2.2,0,0,1,.82,2.145,5.707,5.707,0,0,1-.934,2.2,4.408,4.408,0,0,1-.878.97,9.465,9.465,0,0,1-1.051.793,8.013,8.013,0,0,1-1.433.936,8.555,8.555,0,0,1-1.6.647,10.984,10.984,0,0,1-3.5.589,11.267,11.267,0,0,1-3.42-.529,12.513,12.513,0,0,1-3.155-1.526,10.743,10.743,0,0,1-2.6-2.465,13.071,13.071,0,0,1-2.718-6.227,15.461,15.461,0,0,1,.41-6.81,14.267,14.267,0,0,1,3.33-5.809,10.553,10.553,0,0,1,6.1-3.17,9.744,9.744,0,0,1,3.475-.088,11.317,11.317,0,0,1,3.42,1.084,16.512,16.512,0,0,1,2.743,1.851,6.385,6.385,0,0,1,1.987,2.67,2.351,2.351,0,0,1,0,1.261,2.386,2.386,0,0,1-1.664,1.673,2.179,2.179,0,0,1-1.316-.055,3.948,3.948,0,0,1-1.782-1.44,6.422,6.422,0,0,0-1.722-1.675,6.259,6.259,0,0,0-4-.79,6.127,6.127,0,0,0-3.71,1.79,8.907,8.907,0,0,0-2.334,4.579,11.464,11.464,0,0,0,.116,5.166,8.775,8.775,0,0,0,2.016,3.9,6.221,6.221,0,0,0,3.884,2.026,6.04,6.04,0,0,0,3.01-.3,5.644,5.644,0,0,0,2.481-1.7c.232-.275.5-.579.789-.912a4.959,4.959,0,0,1,.964-.851,2.2,2.2,0,0,1,1.107-.382,1.732,1.732,0,0,1,1.171.438" transform="translate(0 -0.045)" fill="#fff"/>
        <path d="M252.982,40.432c0,.825.017,1.675.056,2.555a19.79,19.79,0,0,1-.056,2.614,4.994,4.994,0,0,1-.644,1.908,2.512,2.512,0,0,1-1.577,1.2,2.461,2.461,0,0,1-2.572-.938,3.873,3.873,0,0,1-.875-2.554V34.886a14.057,14.057,0,0,0-.173-2.231,10.717,10.717,0,0,0-.585-2.143,5.86,5.86,0,0,0-1.171-1.878,3.769,3.769,0,0,0-2.128-1.32,3.873,3.873,0,0,0-2.25.262,5.828,5.828,0,0,0-1.989,1.41,5.336,5.336,0,0,0-1.227,2.112,10.615,10.615,0,0,0-.378,3.378q.089,1.672.087,3.376V42.9c0,.548-.008,1.138-.027,1.762a7.379,7.379,0,0,1-.265,1.762,3.956,3.956,0,0,1-.758,1.465,2.4,2.4,0,0,1-1.518.822,2.028,2.028,0,0,1-1.288-.177,2.793,2.793,0,0,1-.988-.821,3.649,3.649,0,0,1-.615-1.2,4.491,4.491,0,0,1-.207-1.319v-5.7q0-2.055.061-4.108a12.141,12.141,0,0,0-.584-4.051,8.443,8.443,0,0,0-.671-1.85,3.25,3.25,0,0,0-1.374-1.5,3.9,3.9,0,0,0-2.659-.762A4.332,4.332,0,0,0,224,28.4a5.224,5.224,0,0,0-1.255,1.554,6.436,6.436,0,0,0-.613,1.821,11.061,11.061,0,0,0-.175,2v1.967q-.116,1.47-.145,2.935c-.021.979-.032,1.96-.032,2.937,0,.467.02,1,.059,1.585a12.787,12.787,0,0,1,0,1.761,9.309,9.309,0,0,1-.262,1.673,2.627,2.627,0,0,1-.79,1.32,2.477,2.477,0,0,1-1.344.764,2.122,2.122,0,0,1-1.313-.177,2.926,2.926,0,0,1-1.081-.909,3.581,3.581,0,0,1-.642-1.38,2.608,2.608,0,0,1-.266-1.026c-.019-.371-.028-.774-.028-1.2q0-2.523.09-5.049t.085-5.166V26.814q0-.878.059-1.7a4.064,4.064,0,0,1,.407-1.527,2.588,2.588,0,0,1,2.163-1.528,2.43,2.43,0,0,1,2.217,1.41c.159.2.3.373.442.531a.767.767,0,0,0,.614.234,2.528,2.528,0,0,0,1.051-.647,9.909,9.909,0,0,1,1.4-.853,7,7,0,0,1,1.519-.556,6.514,6.514,0,0,1,3.243,0,7.813,7.813,0,0,1,2.951,1.409q.409.353.817.761a7.964,7.964,0,0,0,.789.706,1.957,1.957,0,0,0,.847.382,1.513,1.513,0,0,0,1.051-.263,8.606,8.606,0,0,0,1.519-1.116,8.511,8.511,0,0,1,1.518-1.116,2.79,2.79,0,0,1,1.142-.588c.446-.116.884-.216,1.315-.294a7.036,7.036,0,0,1,3.854.266,10.629,10.629,0,0,1,3.387,1.908,10.832,10.832,0,0,1,3.418,4.9,18.075,18.075,0,0,1,.966,5.839ZM228.27,27.343a3.907,3.907,0,0,0,.381.234c.134.079.3.177.5.295-.2-.118-.363-.216-.5-.295a3.907,3.907,0,0,1-.381-.234" transform="translate(-5.003 -0.018)" fill="#fff"/>
        <path d="M286.517,41.876c.077.193.109.29.09.29s-.04-.027-.059-.087-.04-.116-.059-.174-.01-.07.029-.029a2.158,2.158,0,0,1-.087,2.046,8.248,8.248,0,0,1-1.37,1.641,11.892,11.892,0,0,1-3.843,2.4,19.1,19.1,0,0,1-4.574.762,17.378,17.378,0,0,1-4.571-.351,10.717,10.717,0,0,1-4.78-2.313,10.376,10.376,0,0,1-3.029-4.363,15.248,15.248,0,0,1-1.05-4.155,12.633,12.633,0,0,1,.235-4.216,16.863,16.863,0,0,1,1.047-3.4,15.508,15.508,0,0,1,1.747-3.075,12.441,12.441,0,0,1,2.449-2.518,10.53,10.53,0,0,1,3.145-1.667,11.952,11.952,0,0,1,7.107-.148,11.6,11.6,0,0,1,3.2,1.522,9.69,9.69,0,0,1,2.565,2.548A12.546,12.546,0,0,1,286.43,29.9a21.484,21.484,0,0,1,.9,3.6,16,16,0,0,1,.144,1.726,1.619,1.619,0,0,1-.669,1.434,1.788,1.788,0,0,1-1.4.44c-.624-.019-1.146-.029-1.572-.029H272.826c-.427,0-.842-.01-1.251-.031a4.9,4.9,0,0,0-1.195.089,2.646,2.646,0,0,0-1.835.906A1.738,1.738,0,0,0,268.4,40c.2.43.38.837.555,1.228a2.862,2.862,0,0,0,.845,1.054,9.034,9.034,0,0,0,2.678,1.934,7.891,7.891,0,0,0,2.975.584,9.61,9.61,0,0,0,2.97-.469,14.774,14.774,0,0,0,1.981-.876q.987-.528,1.982-1.173a9.019,9.019,0,0,1,.988-.731,3.869,3.869,0,0,1,1.165-.526,2.109,2.109,0,0,1,1.106,0,1.446,1.446,0,0,1,.874.849M269.039,30.514c-.037.082-.05.109-.027.088a.439.439,0,0,0,.056-.088.212.212,0,0,0,.031-.088c0-.018-.021.012-.06.088-.076.235-.146.48-.2.734a1.316,1.316,0,0,0,.027.732,1.123,1.123,0,0,0,1.051.614q.753.03,1.223.03h7.977c.235,0,.526-.01.876-.03a5.635,5.635,0,0,0,1.02-.148,1.487,1.487,0,0,0,.788-.438,1.146,1.146,0,0,0,.232-.908,3.639,3.639,0,0,0-.845-1.989,8.39,8.39,0,0,0-1.545-1.465,5.678,5.678,0,0,0-3.059-1.112,10.906,10.906,0,0,0-3.233.235,7.2,7.2,0,0,0-2.563,1.492,8.689,8.689,0,0,0-1.748,2.253" transform="translate(-13.193 -0.044)" fill="#fff"/>
        <path d="M295.162,26.332a2.266,2.266,0,1,1,2.256-2.265,2.26,2.26,0,0,1-2.256,2.265m0-3.624a1.359,1.359,0,1,0,1.353,1.359,1.359,1.359,0,0,0-1.353-1.359" transform="translate(-18.38)" fill="#fff"/>
        <path d="M287.438,67.419a2.063,2.063,0,0,1-1.809,2.033H264.978a2.061,2.061,0,0,1-1.808-2.033v.337a2.06,2.06,0,0,1,1.808-2.033h20.651a2.062,2.062,0,0,1,1.809,2.033Z" transform="translate(-13.199 -7.651)" fill="#fff"/>
    </g>
</svg>