<svg xmlns="http://www.w3.org/2000/svg"
    xmlns:xlink="http://www.w3.org/1999/xlink" height="19" version="1.1" viewBox="0 0 101 19" width="101">
    <title>Logo_Genetec_RGB_COLOR_TM</title>
    <g fill="none" fill-rule="evenodd" id="-" stroke="none" stroke-width="1">
        <g fill="#FFFFFF" fill-rule="nonzero" id="Genetec-Nav-1-Desktop-@2x" transform="translate(-131.000000, -37.000000)">
            <g id="Logo_Genetec_RGB_COLOR_TM" transform="translate(131.000000, 37.000000)">
                <path d="M92.8762542,12.006689 C92.7090301,13.2441472 91.9397993,14.3143813 90.6354515,14.8160535 C88.5618729,15.6187291 86.4882943,14.4481605 85.6521739,12.3411371 C85.3511706,11.638796 85.2508361,10.90301 85.3177258,10.2006689 L77.6588629,13.2107023 C77.2909699,13.8795987 76.6555184,14.4481605 75.7859532,14.7826087 C74.1471572,15.4180602 72.5083612,14.8494983 71.5050167,13.5451505 L87.5585284,7.22408027 C88.0602007,7.02341137 88.5284281,6.98996656 88.8963211,6.95652174 C90.3344482,6.95652174 91.6053512,7.82608696 92.3411371,9.19732441 L95.9197324,7.79264214 C94.6822742,5.25083612 92.1070234,3.51170569 89.09699,3.51170569 C85.451505,3.51170569 82.4080268,6.08695652 81.7056856,9.49832776 C80.9698997,6.08695652 77.9264214,3.51170569 74.3143813,3.51170569 C71.8394649,3.51170569 69.6655518,4.68227425 68.2608696,6.52173913 L68.2608696,3.91304348 L64.9498328,3.91304348 L64.9498328,0.0668896321 L60.7023411,1.80602007 L60.7023411,9.56521739 C60.0668896,6.2541806 56.9899666,3.57859532 53.3110368,3.57859532 C49.4648829,3.57859532 46.2876254,6.4548495 45.819398,10.1672241 L45.819398,9.29765886 C45.819398,5.88628763 43.8795987,3.47826087 40.5351171,3.47826087 C37.993311,3.47826087 37.090301,4.74916388 36.6220736,5.55183946 L36.6220736,3.97993311 L32.6421405,3.97993311 L32.6421405,9.53177258 C31.9063545,6.12040134 28.8628763,3.57859532 25.2508361,3.57859532 C21.5050167,3.57859532 18.4280936,6.28762542 17.7926421,9.83277592 C17.7926421,8.56187291 17.4916388,7.35785953 17.0234114,6.2541806 L8.82943144,9.46488294 L9.83277592,12.0401338 L13.812709,10.4682274 C13.7458194,12.3076923 12.7424749,13.9130435 10.8361204,14.6488294 C8.16053512,15.6856187 5.51839465,14.2140468 4.48160535,11.6053512 C3.44481605,8.99665552 4.34782609,6.18729097 7.05685619,5.15050167 C8.82943144,4.48160535 10.6020067,4.88294314 11.8729097,5.98662207 L15.9531773,4.3812709 C14.3478261,2.34113712 11.8394649,1.0367893 9.03010033,1.0367893 C4.11371237,1.0367893 0.16722408,5.01672241 0.16722408,9.86622074 C0.16722408,14.7491639 4.11371237,18.6956522 8.99665552,18.6956522 C13.3779264,18.6956522 17.0234114,15.4849498 17.7257525,11.270903 C17.7926421,15.3846154 21.1371237,18.6956522 25.2842809,18.6956522 C28.8963211,18.6956522 31.9397993,16.1538462 32.6755853,12.7424749 L32.6755853,18.1605351 L36.9565217,18.1605351 C36.9565217,18.1605351 36.9565217,10.1003344 36.9565217,9.89966555 L28.6622074,13.1772575 C28.2943144,13.8795987 27.6588629,14.4816054 26.7558528,14.8160535 C25.083612,15.451505 23.4448161,14.8494983 22.4414716,13.5451505 C22.4414716,13.5451505 38.1939799,7.35785953 38.2274247,7.32441472 C38.6287625,7.15719064 39.0301003,7.090301 39.3645485,7.090301 C41.6053512,7.090301 41.6053512,9.39799331 41.6053512,10.4013378 L41.6053512,18.1605351 L45.8528428,18.1605351 L45.8528428,12.1070234 C46.3210702,15.819398 49.4983278,18.6956522 53.3444816,18.6956522 C56.9565217,18.6956522 60,16.1538462 60.735786,12.7424749 L60.735786,18.1605351 L64.9832776,18.1605351 L64.9832776,9.96655518 L56.6889632,13.2107023 C56.3210702,13.9130435 55.6856187,14.4816054 54.8160535,14.7826087 C53.1772575,15.4180602 51.5384615,14.8494983 50.5351171,13.5451505 L68.2608696,6.58862876 C67.3244147,7.85953177 66.7558528,9.43143813 66.7558528,11.1036789 C66.7558528,15.2842809 70.1337793,18.6622074 74.3143813,18.6622074 C77.9598662,18.6622074 81.0033445,16.0869565 81.7056856,12.6755853 C82.4414716,16.0869565 85.4849498,18.6622074 89.09699,18.6622074 C92.7759197,18.6622074 95.819398,16.0535117 96.5217391,12.5752508 L92.8762542,12.006689 Z M21.4715719,10.9698997 C21.4046823,9.43143813 22.2073579,8.06020067 23.7792642,7.45819398 C25.3177258,6.85618729 26.8561873,7.32441472 27.8595318,8.46153846 L21.4715719,10.9698997 Z M49.5652174,11.0033445 C49.4983278,9.46488294 50.3010033,8.06020067 51.8729097,7.45819398 C53.4448161,6.85618729 54.9832776,7.35785953 55.9866221,8.49498328 L49.5652174,11.0033445 Z M72.8428094,7.45819398 C74.4147157,6.85618729 75.9531773,7.35785953 76.9565217,8.49498328 L70.5351171,11.0367893 C70.4682274,9.46488294 71.270903,8.06020067 72.8428094,7.45819398 Z" id="Shape"/>
                <g id="Group" transform="translate(96.321070, 1.672241)">
                    <polygon id="Path" points="0.602006689 0.234113712 0 0.234113712 0 0 1.43812709 0 1.43812709 0.234113712 0.836120401 0.234113712 0.836120401 1.83946488 0.602006689 1.83946488"/>
                    <polygon id="Path" points="1.70568562 0 2.0735786 0 2.67558528 1.40468227 2.67558528 1.40468227 3.24414716 0 3.61204013 0 3.61204013 1.83946488 3.37792642 1.83946488 3.37792642 0.334448161 3.37792642 0.334448161 2.74247492 1.83946488 2.57525084 1.83946488 1.93979933 0.334448161 1.93979933 0.334448161 1.93979933 1.83946488 1.70568562 1.83946488 1.70568562 0"/>
                </g>
            </g>
        </g>
    </g>
</svg>